<svg width="38" height="38" viewBox="0 0 38 38" fill="none" xmlns="http://www.w3.org/2000/svg">
<path d="M18.2174 33.9478C17.9826 33.9478 17.6696 33.9478 17.4348 33.9478M17.4348 33.9478C13.3652 33.9478 9.6087 32.4609 6.7913 30.0348C6.63478 29.9565 6.47826 29.8 6.4 29.6435M17.4348 33.9478C15.4783 33.9478 13.6783 32.4609 12.3478 30.0348C12.1913 29.8 12.113 29.5652 11.9565 29.3304C11.5652 28.4696 11.2522 27.6087 10.9391 26.6696M6.4 29.6435C6.24348 29.5652 6.16522 29.4087 6.0087 29.3304C2.95652 26.2783 1 22.1304 1 17.513M6.4 29.6435C6.47826 29.487 6.63478 29.4087 6.7913 29.2522C8.04348 28.1565 9.45217 27.2957 10.9391 26.6696M1 17.513C1 12.7391 3.03478 8.35652 6.32174 5.38261M1 17.513H19M6.32174 5.38261C6.47826 5.22609 6.63478 5.14783 6.7913 4.9913C9.68696 2.56522 13.3652 1.07826 17.4348 1.07826C21.5043 1.07826 25.2609 2.56522 28.0783 4.9913C28.2348 5.14783 28.313 5.22609 28.4696 5.38261C31.8348 8.35652 33.8696 12.7391 33.8696 17.513C33.8696 17.8261 33.8696 18.1391 33.8696 18.4522M6.32174 5.38261C6.47826 5.53913 6.63478 5.61739 6.7913 5.77391C9.6087 8.2 13.3652 9.68696 17.4348 9.68696C21.5043 9.68696 25.1826 8.2 28.0783 5.77391C28.2348 5.61739 28.3913 5.53913 28.5478 5.38261M10.9391 26.6696C12.2696 26.1217 13.6 25.7304 15.087 25.4957M10.9391 26.6696C10.0783 24.087 9.6087 20.8783 9.6087 17.513C9.6087 14.1478 10.0783 10.9391 10.9391 8.27826C11.3304 7.18261 11.7217 6.16522 12.1913 5.30435C12.1913 5.14783 12.2696 5.06957 12.3478 4.91304C13.7565 2.48696 15.4783 1 17.4348 1C19.3913 1 21.1913 2.48696 22.5217 4.91304C22.5217 5.06957 22.6 5.14783 22.6783 5.30435C23.1478 6.16522 23.6174 7.18261 23.9304 8.27826C24.5565 10.313 25.0261 12.6609 25.1826 15.1652M37 37.0783L32.3043 32.3826M26.0435 22.2087V31.6M26.0435 22.2087L22.1304 26.1217M26.0435 22.2087L29.9565 26.1217M34.6522 26.1217C34.6522 30.8762 30.7979 34.7304 26.0435 34.7304C21.289 34.7304 17.4348 30.8762 17.4348 26.1217C17.4348 21.3673 21.289 17.513 26.0435 17.513C30.7979 17.513 34.6522 21.3673 34.6522 26.1217Z" stroke="#CE03AE" stroke-width="1.7" stroke-miterlimit="10"/>
</svg>
