<svg width="37" height="31" viewBox="0 0 37 31" fill="none" xmlns="http://www.w3.org/2000/svg">
<path d="M0.589863 14.1759C6.73811 11.3821 24.643 3.29693 33.402 0.15091C34.7235 -0.321393 36.174 0.351038 36.6494 1.66388C36.7944 2.06414 36.8347 2.48841 36.7702 2.90468L32.846 28.297C32.6123 29.818 31.1861 30.8666 29.647 30.6345C29.2521 30.5785 28.8815 30.4344 28.543 30.2182L17.1893 22.9255C15.8436 22.061 15.4649 20.2838 16.3271 18.947C16.456 18.7469 16.6172 18.5547 16.8025 18.3946L27.2699 8.42823C27.7131 8.00395 27.1409 7.30751 26.6333 7.65973L11.7179 18.0264C10.3159 19.003 8.51893 19.2031 6.9315 18.5707L0.630153 16.0251C0.114441 15.817 -0.135357 15.2326 0.0741511 14.7203C0.170847 14.4721 0.356181 14.28 0.589863 14.1759Z" fill="white"/>
</svg>
