<svg width="4" height="7" viewBox="0 0 4 7" fill="none" xmlns="http://www.w3.org/2000/svg">
<path d="M3.8326 3.09165L0.889564 0.153807C0.841226 0.105071 0.783716 0.0663878 0.720353 0.0399896C0.65699 0.0135913 0.589026 0 0.520384 0C0.451741 0 0.383778 0.0135913 0.320415 0.0399896C0.257051 0.0663878 0.199542 0.105071 0.151204 0.153807C0.0543586 0.25123 0 0.383018 0 0.520387C0 0.657756 0.0543586 0.789544 0.151204 0.886967L2.72506 3.48683L0.151204 6.06069C0.0543586 6.15811 0 6.2899 0 6.42727C0 6.56464 0.0543586 6.69642 0.151204 6.79385C0.199361 6.84298 0.256789 6.88206 0.320161 6.90884C0.383533 6.93562 0.451588 6.94955 0.520384 6.94984C0.58918 6.94955 0.657235 6.93562 0.720607 6.90884C0.783979 6.88206 0.841407 6.84298 0.889564 6.79385L3.8326 3.85601C3.88538 3.80732 3.92751 3.74822 3.95632 3.68244C3.98513 3.61667 4 3.54564 4 3.47383C4 3.40202 3.98513 3.33099 3.95632 3.26521C3.92751 3.19943 3.88538 3.14034 3.8326 3.09165Z" fill="white"/>
</svg>
