<svg width="8" height="4" viewBox="0 0 8 4" fill="none" xmlns="http://www.w3.org/2000/svg">
<path d="M4.38345 3.1681L7.32129 1.14674C7.37003 1.11354 7.40871 1.07404 7.43511 1.03052C7.46151 0.987004 7.4751 0.940325 7.4751 0.89318C7.4751 0.846034 7.46151 0.799356 7.43511 0.755836C7.40871 0.712316 7.37003 0.672817 7.32129 0.639617C7.22387 0.573102 7.09208 0.535767 6.95471 0.535767C6.81734 0.535767 6.68555 0.573102 6.58813 0.639617L3.98827 2.40741L1.41441 0.639617C1.31699 0.573101 1.1852 0.535766 1.04783 0.535766C0.910461 0.535766 0.778674 0.573101 0.681251 0.639617C0.63212 0.672693 0.593033 0.712136 0.566256 0.755661C0.539479 0.799187 0.525545 0.845929 0.525259 0.89318C0.525545 0.940431 0.539479 0.987173 0.566256 1.0307C0.593033 1.07422 0.63212 1.11367 0.681251 1.14674L3.61909 3.1681C3.66778 3.20435 3.72688 3.23328 3.79265 3.25307C3.85843 3.27286 3.92946 3.28307 4.00127 3.28307C4.07308 3.28307 4.14411 3.27286 4.20989 3.25307C4.27566 3.23328 4.33476 3.20435 4.38345 3.1681Z" fill="white"/>
</svg>
