<svg width="184" height="41" viewBox="0 0 184 41" fill="none" xmlns="http://www.w3.org/2000/svg">
<path d="M51.0359 27.6147C52.0448 29.3792 51.4312 31.6271 49.6666 32.6352C49.0907 32.9649 48.4636 33.1212 47.8446 33.1212C46.567 33.1212 45.3254 32.4546 44.6462 31.266L33.1211 11.0979L26.845 22.0804H18.3688L29.9262 1.85479C30.5812 0.708385 31.8004 0.000417952 33.1211 0.000417952C34.4418 0.000417952 35.6609 0.708385 36.3159 1.85479L51.0359 27.6147ZM69.9201 12.8804H57.3355L54.1813 7.3604H77.28C79.3123 7.3604 80.96 5.71267 80.96 3.68041C80.96 1.64815 79.3123 0.00041832 77.28 0.00041832H47.8401C46.5284 0.00041832 45.3155 0.698502 44.657 1.83323C43.9984 2.96795 43.9939 4.36681 44.6453 5.50603L59.3652 31.266C60.0445 32.4546 61.2861 33.1212 62.5637 33.1212C63.1827 33.1212 63.8098 32.9649 64.3857 32.6352C66.1502 31.6271 66.7639 29.3792 65.7549 27.6147L61.5411 20.2404H69.9201C71.9523 20.2404 73.6001 18.5926 73.6001 16.5604C73.6001 14.5281 71.9523 12.8804 69.9201 12.8804ZM110.38 29.2416C110.373 29.1088 110.362 28.9775 110.34 28.8451C110.321 28.7268 110.293 28.6128 110.263 28.4984C110.233 28.3854 110.2 28.2738 110.159 28.1627C110.112 28.0355 110.055 27.9147 109.995 27.7945C109.965 27.7353 109.948 27.6729 109.915 27.6147L95.1948 1.85479C94.5399 0.708385 93.3207 0.000417952 92 0.000417952C90.6793 0.000417952 89.4601 0.708385 88.8052 1.85479L74.0852 27.6147C73.0763 29.3792 73.6899 31.6271 75.4544 32.6352C77.219 33.6459 79.4668 33.0305 80.4749 31.266L92 11.0979L100.379 25.7604H92C89.9678 25.7604 88.32 27.4081 88.32 29.4403C88.32 31.4726 89.9678 33.1203 92 33.1203H106.717C106.719 33.1203 106.721 33.1212 106.724 33.1212C106.739 33.1212 106.754 33.1156 106.769 33.1154C107.044 33.1117 107.31 33.0736 107.568 33.0125C107.647 32.9938 107.724 32.9642 107.802 32.94C108.015 32.8739 108.219 32.7911 108.414 32.6892C108.457 32.6667 108.503 32.6594 108.546 32.6352C108.583 32.6137 108.612 32.5841 108.649 32.5616C108.763 32.491 108.869 32.4119 108.974 32.3297C109.063 32.2602 109.152 32.1919 109.233 32.1157C109.321 32.0336 109.399 31.9441 109.478 31.8539C109.556 31.7637 109.636 31.6753 109.705 31.5787C109.773 31.4833 109.831 31.3815 109.89 31.2796C109.949 31.1778 110.008 31.0777 110.057 30.9713C110.107 30.8626 110.145 30.7491 110.185 30.635C110.223 30.523 110.262 30.412 110.29 30.2968C110.316 30.1867 110.331 30.0742 110.348 29.9605C110.366 29.8302 110.382 29.7008 110.387 29.5685C110.389 29.525 110.4 29.4843 110.4 29.4403C110.4 29.3723 110.384 29.3087 110.38 29.2416ZM33.1202 25.7604H10.0214L21.595 5.50603C22.604 3.7415 21.9903 1.49362 20.2258 0.485573C18.4631 -0.52337 16.2152 0.0911598 15.2054 1.85479L0.485398 27.6147C-0.165967 28.7539 -0.161475 30.1528 0.497078 31.2875C1.15563 32.4222 2.36852 33.1203 3.68023 33.1203H33.1202C35.1524 33.1203 36.8001 31.4726 36.8001 29.4403C36.8001 27.4081 35.1524 25.7604 33.1202 25.7604Z" fill="white"/>
<path d="M183.503 31.2881C182.844 32.4228 181.631 33.1209 180.32 33.1209H125.12C123.799 33.1209 122.58 32.4129 121.925 31.2665L107.205 5.50659C106.554 4.36737 106.558 2.96851 107.217 1.83378C107.875 0.699061 109.088 0.000976562 110.4 0.000976562H165.6C166.921 0.000976562 168.14 0.708944 168.795 1.85535L183.515 27.6153C184.166 28.7545 184.161 30.1534 183.503 31.2881Z" fill="#E00C69"/>
<path d="M137.933 22.001H132.238V9.31836H137.836C139.026 9.31836 139.969 9.60254 140.666 10.1709C141.364 10.7393 141.712 11.5098 141.712 12.4824C141.712 13.1738 141.484 13.7803 141.027 14.3018C140.575 14.8232 140.01 15.1338 139.33 15.2334V15.3037C140.198 15.3682 140.912 15.6875 141.475 16.2617C142.037 16.8359 142.319 17.5391 142.319 18.3711C142.319 19.4902 141.926 20.375 141.141 21.0254C140.356 21.6758 139.286 22.001 137.933 22.001ZM134.892 11.2959V14.5918H136.878C137.587 14.5918 138.135 14.4453 138.522 14.1523C138.908 13.8535 139.102 13.4346 139.102 12.8955C139.102 12.3857 138.932 11.9932 138.592 11.7178C138.252 11.4365 137.772 11.2959 137.151 11.2959H134.892ZM134.892 20.0234H137.256C138.024 20.0234 138.607 19.8652 139.005 19.5488C139.409 19.2266 139.612 18.7637 139.612 18.1602C139.612 17.5684 139.404 17.1172 138.988 16.8066C138.577 16.4961 137.98 16.3408 137.195 16.3408H134.892V20.0234ZM147.97 14.0732C147.384 14.0732 146.895 14.2666 146.502 14.6533C146.115 15.04 145.899 15.5439 145.852 16.165H150.027C150.003 15.5322 149.804 15.0254 149.429 14.6445C149.054 14.2637 148.568 14.0732 147.97 14.0732ZM150.062 19.0479H152.426C152.285 19.9854 151.814 20.7412 151.011 21.3154C150.208 21.8838 149.218 22.168 148.04 22.168C146.57 22.168 145.409 21.7256 144.56 20.8408C143.716 19.9561 143.294 18.7432 143.294 17.2021C143.294 15.6611 143.713 14.4365 144.551 13.5283C145.395 12.6143 146.526 12.1572 147.944 12.1572C149.338 12.1572 150.446 12.5908 151.266 13.458C152.092 14.3252 152.505 15.4941 152.505 16.9648V17.7559H145.825V17.9141C145.825 18.6113 146.033 19.1768 146.449 19.6104C146.865 20.0381 147.41 20.252 148.084 20.252C148.571 20.252 148.99 20.1465 149.341 19.9355C149.698 19.7188 149.939 19.4229 150.062 19.0479ZM154.571 10.1709H157.137V12.3242H158.93V14.2666H157.137V18.9688C157.137 19.707 157.521 20.0762 158.288 20.0762C158.54 20.0762 158.754 20.0615 158.93 20.0322V21.9307C158.578 22.001 158.165 22.0361 157.691 22.0361C156.572 22.0361 155.772 21.8311 155.291 21.4209C154.811 21.0107 154.571 20.334 154.571 19.3906V14.2666H153.261V12.3242H154.571V10.1709Z" fill="white"/>
</svg>
