<svg width="40" height="41" viewBox="0 0 40 41" fill="none" xmlns="http://www.w3.org/2000/svg">
<path d="M31.4361 23.8656C31.4361 21.8921 29.815 20.2709 27.8414 20.2709C25.8678 20.2709 24.2467 21.8921 24.2467 23.8656C24.2467 25.5925 25.4802 27.0727 27.1366 27.3899V37.6806C24.8811 38.6322 22.4846 39.0903 20.0176 39.0903C14.1322 39.0903 8.74009 36.4119 5.18062 31.7247C4.93392 31.4075 4.51101 31.337 4.19383 31.5837C3.87665 31.8304 3.80617 32.2533 4.05286 32.5705C7.85903 37.6101 13.674 40.5 20.0176 40.5C22.837 40.5 25.5507 39.9361 28.1233 38.7731C28.37 38.6674 28.5463 38.4207 28.5463 38.1388V27.3899C30.1674 27.0727 31.4361 25.6278 31.4361 23.8656ZM25.6211 23.8656C25.6211 22.6674 26.6079 21.6806 27.8062 21.6806C29.0044 21.6806 29.9912 22.6674 29.9912 23.8656C29.9912 25.0639 29.0044 26.0507 27.8062 26.0507C26.6079 26.0507 25.6211 25.0639 25.6211 23.8656Z" fill="#CE03AE"/>
<path d="M12.0176 20.2709C11.7004 18.6145 10.2203 17.3811 8.49339 17.3811C6.51982 17.3811 4.89868 19.0022 4.89868 20.9758C4.89868 22.9493 6.51982 24.5705 8.49339 24.5705C10.2203 24.5705 11.7004 23.337 12.0176 21.6806H20.4405C20.652 21.6806 20.8282 21.6101 20.9692 21.4339L25.2687 16.5C25.7974 16.8172 26.3965 16.9934 27.0661 16.9934C29.0396 16.9934 30.6608 15.3722 30.6608 13.3987C30.6608 11.4251 29.0396 9.80396 27.0661 9.80396C25.0925 9.80396 23.4714 11.4251 23.4714 13.3987C23.4714 14.2093 23.7533 14.9846 24.2115 15.5837L20.1233 20.2709H12.0176ZM8.49339 23.1608C7.29515 23.1608 6.30837 22.174 6.30837 20.9758C6.30837 19.7775 7.29515 18.7907 8.49339 18.7907C9.69163 18.7907 10.6784 19.7775 10.6784 20.9758C10.6784 22.174 9.69163 23.1608 8.49339 23.1608ZM27.0661 11.1784C28.2643 11.1784 29.2511 12.1652 29.2511 13.3634C29.2511 14.5617 28.2643 15.5485 27.0661 15.5485C25.8678 15.5485 24.8811 14.5617 24.8811 13.3634C24.8811 12.1652 25.8678 11.1784 27.0661 11.1784Z" fill="#CE03AE"/>
<path d="M2.57269 29.5396H13.4626C13.7797 31.196 15.2599 32.4295 16.9868 32.4295C18.9604 32.4295 20.5815 30.8084 20.5815 28.8348C20.5815 26.8612 18.9604 25.2401 16.9868 25.2401C15.2599 25.2401 13.7797 26.4736 13.4626 28.13H3.03084C1.97357 25.7335 1.40969 23.1608 1.40969 20.4824C1.40969 13.293 5.63877 6.6674 12.1586 3.63656C12.511 3.46035 12.652 3.03744 12.511 2.68502C12.3348 2.3326 11.9119 2.19163 11.5595 2.3326C4.54626 5.64537 0 12.7643 0 20.4824C0 23.5132 0.669604 26.4031 1.93833 29.1167C2.0793 29.3634 2.32599 29.5396 2.57269 29.5396ZM16.9868 26.6498C18.185 26.6498 19.1718 27.6366 19.1718 28.8348C19.1718 30.033 18.185 31.0198 16.9868 31.0198C15.7885 31.0198 14.8018 30.033 14.8018 28.8348C14.8018 27.6013 15.7885 26.6498 16.9868 26.6498Z" fill="#CE03AE"/>
<path d="M19.9824 0.5C18.3612 0.5 16.7401 0.711454 15.1542 1.09912C14.837 1.1696 14.6256 1.45154 14.6256 1.76872V9.83921C12.9692 10.1564 11.7357 11.6366 11.7357 13.3634C11.7357 15.337 13.3568 16.9581 15.3304 16.9581C17.304 16.9581 18.9251 15.337 18.9251 13.3634C18.9251 11.6366 17.6916 10.1564 16.0352 9.83921V2.3326C17.3392 2.05066 18.6784 1.90969 19.9824 1.90969C30.2379 1.90969 38.5551 10.2621 38.5551 20.4824C38.5551 26.6145 35.5242 32.359 30.4493 35.848C30.1322 36.0595 30.0617 36.5176 30.2731 36.8348C30.4141 37.0463 30.6255 37.152 30.8722 37.152C31.0132 37.152 31.1542 37.1167 31.2599 37.0463C36.7225 33.3106 40 27.1432 40 20.5176C40 9.48678 31.0132 0.5 19.9824 0.5ZM17.5154 13.3634C17.5154 14.5617 16.5286 15.5485 15.3304 15.5485C14.1322 15.5485 13.1454 14.5617 13.1454 13.3634C13.1454 12.1652 14.1322 11.1784 15.3304 11.1784C16.5286 11.1784 17.5154 12.1652 17.5154 13.3634Z" fill="#CE03AE"/>
</svg>
