<svg width="41" height="42" viewBox="0 0 41 42" fill="none" xmlns="http://www.w3.org/2000/svg">
<path d="M13.7174 27.2826V26.9435C13.7174 25.7565 14.4804 24.7391 15.6674 24.4848C18.8891 23.7217 22.1957 23.7217 25.4174 24.4848C26.5196 24.7391 27.3674 25.7565 27.3674 26.9435V27.2826M23.0435 17.9565C23.0435 19.3978 21.9413 20.5 20.5 20.5C19.0587 20.5 17.9565 19.3978 17.9565 17.9565V16.2609C17.9565 14.8196 19.0587 13.7174 20.5 13.7174C21.9413 13.7174 23.0435 14.8196 23.0435 16.2609V17.9565ZM32.3696 20.5C32.3696 27.0554 27.0554 32.3696 20.5 32.3696C13.9446 32.3696 8.63043 27.0554 8.63043 20.5C8.63043 13.9446 13.9446 8.63043 20.5 8.63043C27.0554 8.63043 32.3696 13.9446 32.3696 20.5ZM39.6609 23.8913C39.8304 22.7891 40 21.687 40 20.5C40 19.313 39.9152 18.2109 39.6609 17.1087H36.1848C35.7609 15.1587 34.9978 13.3783 33.9804 11.7674L36.4391 9.3087C35.1674 7.44348 33.4717 5.83261 31.6065 4.47609L29.2326 6.93478C27.6217 5.91739 25.8413 5.15435 23.8913 4.73043V1.33913C22.7891 1.08478 21.687 1 20.5 1C19.313 1 18.2109 1.08478 17.1087 1.33913V4.81522C15.1587 5.23913 13.3783 6.00217 11.7674 7.01956L9.3087 4.56087C7.44348 5.83261 5.83261 7.44348 4.47609 9.39348L6.93478 11.7674C5.91739 13.3783 5.15435 15.1587 4.73043 17.1087H1.33913C1.08478 18.2109 1 19.313 1 20.5C1 21.687 1.08478 22.7891 1.33913 23.8913H4.81522C5.23913 25.8413 6.00217 27.6217 7.01957 29.2326L4.56087 31.6913C5.83261 33.5565 7.44348 35.1674 9.39348 36.5239L11.8522 34.0652C13.463 35.0826 15.2435 35.8456 17.1935 36.2696V39.7456C18.2957 39.9152 19.3978 40.0848 20.5848 40.0848C21.7717 40.0848 22.8739 40 23.9761 39.7456V36.2696C25.9261 35.8456 27.7065 35.0826 29.3174 34.0652L31.7761 36.5239C33.6413 35.2522 35.2522 33.5565 36.6087 31.6913L34.0652 29.2326C35.0826 27.6217 35.8456 25.8413 36.2696 23.8913H39.6609Z" stroke="#CE03AE" stroke-width="2" stroke-miterlimit="10"/>
</svg>
