<svg width="55" height="55" viewBox="0 0 55 55" fill="none" xmlns="http://www.w3.org/2000/svg">
<path d="M8.07249 4.68504C8.07249 6.5558 6.55594 8.07236 4.68517 8.07236M8.07249 4.68504C8.07249 2.81427 6.55594 1.29771 4.68517 1.29771C2.81441 1.29771 1.29785 2.81427 1.29785 4.68504C1.29785 6.5558 2.81441 8.07236 4.68517 8.07236M8.07249 4.68504H46.4621M4.68517 8.07236V46.462M8.07249 49.8493C8.07249 51.7201 6.55594 53.2366 4.68517 53.2366C2.81441 53.2366 1.29785 51.7201 1.29785 49.8493C1.29785 47.9786 2.81441 46.462 4.68517 46.462M8.07249 49.8493C8.07249 47.9786 6.55594 46.462 4.68517 46.462M8.07249 49.8493H46.4621M46.4621 49.8493C46.4621 51.7201 47.9787 53.2366 49.8495 53.2366C51.7202 53.2366 53.2368 51.7201 53.2368 49.8493C53.2368 47.9786 51.7202 46.462 49.8495 46.462M46.4621 49.8493C46.4621 47.9786 47.9787 46.462 49.8495 46.462M49.8495 46.462V8.07236M49.8495 8.07236C51.7202 8.07236 53.2368 6.5558 53.2368 4.68504C53.2368 2.81427 51.7202 1.29771 49.8495 1.29771C47.9787 1.29771 46.4621 2.81427 46.4621 4.68504M49.8495 8.07236C47.9787 8.07236 46.4621 6.5558 46.4621 4.68504M12.5889 35.1709H18.2345V40.8165H12.5889V35.1709ZM23.88 23.8799H29.5255V40.8165H23.88V23.8799ZM35.1711 12.5888H40.8166V40.8165H35.1711V12.5888Z" stroke="#CE03AE" stroke-width="1.64885" stroke-miterlimit="10"/>
<mask id="mask0_31_168" style="mask-type:alpha" maskUnits="userSpaceOnUse" x="0" y="0" width="55" height="55">
<path d="M8.07249 4.68504C8.07249 6.5558 6.55594 8.07236 4.68517 8.07236M8.07249 4.68504C8.07249 2.81427 6.55594 1.29771 4.68517 1.29771C2.81441 1.29771 1.29785 2.81427 1.29785 4.68504C1.29785 6.5558 2.81441 8.07236 4.68517 8.07236M8.07249 4.68504H46.4621M4.68517 8.07236V46.462M8.07249 49.8493C8.07249 51.7201 6.55594 53.2366 4.68517 53.2366C2.81441 53.2366 1.29785 51.7201 1.29785 49.8493C1.29785 47.9786 2.81441 46.462 4.68517 46.462M8.07249 49.8493C8.07249 47.9786 6.55594 46.462 4.68517 46.462M8.07249 49.8493H46.4621M46.4621 49.8493C46.4621 51.7201 47.9787 53.2366 49.8495 53.2366C51.7202 53.2366 53.2368 51.7201 53.2368 49.8493C53.2368 47.9786 51.7202 46.462 49.8495 46.462M46.4621 49.8493C46.4621 47.9786 47.9787 46.462 49.8495 46.462M49.8495 46.462V8.07236M49.8495 8.07236C51.7202 8.07236 53.2368 6.5558 53.2368 4.68504C53.2368 2.81427 51.7202 1.29771 49.8495 1.29771C47.9787 1.29771 46.4621 2.81427 46.4621 4.68504M49.8495 8.07236C47.9787 8.07236 46.4621 6.5558 46.4621 4.68504M12.5889 35.1709H18.2345V40.8165H12.5889V35.1709ZM23.88 23.8799H29.5255V40.8165H23.88V23.8799ZM35.1711 12.5888H40.8166V40.8165H35.1711V12.5888Z" stroke="#CE03AE" stroke-width="1.64885" stroke-miterlimit="10"/>
</mask>
<g mask="url(#mask0_31_168)">
<rect x="10.3667" y="11.1908" width="34.626" height="32.9771" fill="white"/>
</g>
</svg>
