<svg width="60" height="55" viewBox="0 0 60 55" fill="none" xmlns="http://www.w3.org/2000/svg">
<path d="M30.7709 22.458C30.7709 20.33 29.0516 18.6107 26.9236 18.6107M26.9236 18.6107C24.7955 18.6107 23.0762 20.33 23.0762 22.458V23.2395C23.0762 24.9347 24.1823 26.4256 25.7934 26.9185L28.0417 27.6038C29.6648 28.0968 30.7589 29.5876 30.7589 31.2828V32.0643C30.7589 34.1924 29.0396 35.9116 26.9115 35.9116C24.7835 35.9116 23.0642 34.1924 23.0642 32.0643M26.9236 18.6107V14.7634M26.9236 35.9237V39.771M47.122 24.3817L52.893 28.229L57.7022 23.4199M40.3892 53.2366H26.9236C12.5802 53.2366 0.954102 41.6105 0.954102 27.2672C0.954102 12.9239 12.5802 1.29771 26.9236 1.29771C41.2669 1.29771 52.893 12.9239 52.893 27.2672M50.0075 53.2366H42.3129M55.7785 53.2366H51.9312M59.6259 53.2366H57.7022M38.4655 27.2672H35.5801M18.2671 27.2672H15.3816M43.2747 27.2672C43.2747 36.2977 35.9541 43.6183 26.9236 43.6183C17.8931 43.6183 10.5724 36.2977 10.5724 27.2672C10.5724 18.2367 17.8931 10.916 26.9236 10.916C35.9541 10.916 43.2747 18.2367 43.2747 27.2672Z" stroke="#CE03AE" stroke-width="1.89618" stroke-miterlimit="10"/>
<mask id="mask0_31_173" style="mask-type:alpha" maskUnits="userSpaceOnUse" x="0" y="0" width="60" height="55">
<path d="M30.7709 22.458C30.7709 20.33 29.0516 18.6107 26.9236 18.6107M26.9236 18.6107C24.7955 18.6107 23.0762 20.33 23.0762 22.458V23.2395C23.0762 24.9347 24.1823 26.4256 25.7934 26.9185L28.0417 27.6038C29.6648 28.0968 30.7589 29.5876 30.7589 31.2828V32.0643C30.7589 34.1924 29.0396 35.9116 26.9115 35.9116C24.7835 35.9116 23.0642 34.1924 23.0642 32.0643M26.9236 18.6107V14.7634M26.9236 35.9237V39.771M47.122 24.3817L52.893 28.229L57.7022 23.4199M40.3892 53.2366H26.9236C12.5802 53.2366 0.954102 41.6105 0.954102 27.2672C0.954102 12.9239 12.5802 1.29771 26.9236 1.29771C41.2669 1.29771 52.893 12.9239 52.893 27.2672M50.0075 53.2366H42.3129M55.7785 53.2366H51.9312M59.6259 53.2366H57.7022M38.4655 27.2672H35.5801M18.2671 27.2672H15.3816M43.2747 27.2672C43.2747 36.2977 35.9541 43.6183 26.9236 43.6183C17.8931 43.6183 10.5724 36.2977 10.5724 27.2672C10.5724 18.2367 17.8931 10.916 26.9236 10.916C35.9541 10.916 43.2747 18.2367 43.2747 27.2672Z" stroke="#CE03AE" stroke-width="1.89618" stroke-miterlimit="10"/>
</mask>
<g mask="url(#mask0_31_173)">
<ellipse cx="26.9239" cy="27.6794" rx="19.374" ry="21.4351" fill="white"/>
</g>
</svg>
