<svg width="44" height="46" viewBox="0 0 44 46" fill="none" xmlns="http://www.w3.org/2000/svg">
<path d="M22.0616 25.0685H20.9629C17.9703 25.0685 15.5415 22.6397 15.5415 19.6471V16.2352C15.5415 13.1414 18.057 10.6115 21.1653 10.6115H21.8737C24.9675 10.6115 27.4975 13.127 27.4975 16.2352V19.6471C27.483 22.6397 25.0543 25.0685 22.0616 25.0685ZM21.1653 12.0572C18.8666 12.0572 16.9872 13.9221 16.9872 16.2352V19.6471C16.9872 21.8446 18.7654 23.6228 20.9629 23.6228H22.0616C24.2591 23.6228 26.0373 21.8446 26.0373 19.6471V16.2352C26.0373 13.9366 24.1724 12.0572 21.8592 12.0572H21.1653Z" fill="#CE03AE"/>
<path d="M26.7602 18.5628C25.8639 18.5628 25.1265 18.1725 24.5049 17.3773L23.5652 16.163L23.3917 16.4232C22.6399 17.493 21.4255 18.1291 20.1244 18.1291H17.4354C16.3945 18.1291 15.5415 17.2761 15.5415 16.2352C15.5415 15.8304 15.8596 15.5124 16.2644 15.5124C16.6692 15.5124 16.9872 15.8304 16.9872 16.2352C16.9872 16.481 17.1896 16.6834 17.4354 16.6834H20.1244C20.9484 16.6834 21.7291 16.2786 22.2062 15.5991L22.9435 14.5293C23.0736 14.3414 23.2905 14.2257 23.5218 14.2257C23.7676 14.2402 23.97 14.3269 24.1145 14.5004L25.647 16.4955C25.994 16.9436 26.312 17.1171 26.7602 17.1171C27.165 17.1171 27.483 17.4352 27.483 17.84C27.483 18.2448 27.165 18.5628 26.7602 18.5628Z" fill="#CE03AE"/>
<path d="M18.6787 30.9815C18.6208 30.9815 18.563 30.9671 18.4907 30.9526C18.2739 30.8948 18.0859 30.7358 17.9992 30.5189L16.1342 25.8782C16.033 25.6035 16.0909 25.2999 16.2933 25.0975L18.1582 23.247C18.3172 23.1024 18.5196 23.0157 18.7365 23.0446C18.9534 23.0591 19.1413 23.1747 19.2714 23.3627L22.105 27.5697C22.3218 27.8877 22.2496 28.307 21.9604 28.5383L19.1268 30.837C18.9967 30.9237 18.8377 30.9815 18.6787 30.9815ZM17.6667 25.777L18.9823 29.0732L20.5436 27.8154L18.563 24.8807L17.6667 25.777Z" fill="#CE03AE"/>
<path d="M24.3459 30.9815C24.1868 30.9815 24.0278 30.9237 23.8977 30.8225L21.0641 28.5238C20.775 28.2925 20.7027 27.8733 20.9195 27.5552L23.7531 23.3482C23.8688 23.1747 24.0712 23.0591 24.288 23.0301C24.5049 23.0157 24.7218 23.088 24.8663 23.2325L26.7313 25.083C26.9337 25.2854 27.006 25.589 26.8903 25.8637L25.0254 30.5044C24.9386 30.7213 24.7651 30.8803 24.5338 30.9382C24.476 30.9671 24.4182 30.9815 24.3459 30.9815ZM22.4809 27.8154L24.0423 29.0732L25.3579 25.777L24.4471 24.8806L22.4809 27.8154Z" fill="#CE03AE"/>
<path d="M31.2997 35.1885H11.7248C11.32 35.1885 11.002 34.8704 11.002 34.4656V30.6924C11.002 27.4829 13.6042 24.8806 16.8137 24.8806C17.2185 24.8806 17.5365 25.1987 17.5365 25.6035C17.5365 26.0083 17.2185 26.3263 16.8137 26.3263C14.4138 26.3263 12.4477 28.278 12.4477 30.6924V33.7428H30.5768V30.6924C30.5768 28.2925 28.6251 26.3263 26.2108 26.3263C25.806 26.3263 25.4879 26.0083 25.4879 25.6035C25.4879 25.1987 25.806 24.8806 26.2108 24.8806C29.4203 24.8806 32.0225 27.4829 32.0225 30.6924V34.4656C32.0225 34.8704 31.7045 35.1885 31.2997 35.1885Z" fill="#CE03AE"/>
<path d="M19.3867 35.1885C19.3145 35.1885 19.2422 35.1741 19.1843 35.1596C18.8085 35.044 18.5916 34.6392 18.6928 34.2633L19.6036 31.2418L18.9386 29.825C18.7651 29.4635 18.9241 29.0298 19.2855 28.8708C19.647 28.6973 20.0807 28.8564 20.2397 29.2178L21.0204 30.8803C21.0927 31.0394 21.1071 31.2273 21.0638 31.3863L20.0807 34.6681C19.9795 34.9861 19.6903 35.1885 19.3867 35.1885Z" fill="#CE03AE"/>
<path d="M23.6517 35.1885C23.3336 35.1885 23.0589 34.9861 22.9577 34.6681L21.9746 31.3863C21.9168 31.2129 21.9313 31.0394 22.018 30.8803L22.7987 29.2178C22.9722 28.8564 23.4059 28.6973 23.7529 28.8708C24.1143 29.0443 24.2733 29.4635 24.0998 29.825L23.4348 31.2418L24.3456 34.2633C24.4613 34.6392 24.2444 35.044 23.8541 35.1596C23.7818 35.1741 23.7095 35.1885 23.6517 35.1885Z" fill="#CE03AE"/>
<path d="M22.6685 31.9068H20.3698C19.965 31.9068 19.647 31.5887 19.647 31.1839C19.647 30.7791 19.965 30.4611 20.3698 30.4611H22.6685C23.0733 30.4611 23.3914 30.7791 23.3914 31.1839C23.3914 31.5887 23.0588 31.9068 22.6685 31.9068Z" fill="#CE03AE"/>
<path d="M3.96124 7.93693C1.77822 7.93693 0 6.15871 0 3.96124C0 1.77822 1.77822 0 3.96124 0C6.14425 0 7.92247 1.77822 7.92247 3.96124C7.93693 6.15871 6.15871 7.93693 3.96124 7.93693ZM3.96124 1.44571C2.57336 1.44571 1.44571 2.57336 1.44571 3.96124C1.44571 5.34911 2.57336 6.47677 3.96124 6.47677C5.34911 6.47677 6.47677 5.34911 6.47677 3.96124C6.49122 2.57336 5.36357 1.44571 3.96124 1.44571Z" fill="#CE03AE"/>
<path d="M39.0629 7.93693C36.8799 7.93693 35.1017 6.15871 35.1017 3.97569C35.0872 1.77822 36.8654 0 39.0629 0C41.2459 0 43.0241 1.77822 43.0241 3.96124C43.0241 6.15871 41.2459 7.93693 39.0629 7.93693ZM39.0629 1.44571C37.675 1.44571 36.5474 2.57336 36.5474 3.96124C36.5474 5.34911 37.675 6.47677 39.0629 6.47677C40.4508 6.47677 41.5784 5.34911 41.5784 3.96124C41.5784 2.57336 40.4508 1.44571 39.0629 1.44571Z" fill="#CE03AE"/>
<path d="M21.512 7.93688C19.329 7.93688 17.5508 6.15866 17.5508 3.97564C17.5508 1.79262 19.329 0.0144043 21.512 0.0144043C23.695 0.0144043 25.4733 1.79262 25.4733 3.97564C25.4877 6.15866 23.695 7.93688 21.512 7.93688ZM21.512 1.44565C20.1241 1.44565 18.9965 2.57331 18.9965 3.96118C18.9965 5.34906 20.1241 6.47671 21.512 6.47671C22.8999 6.47671 24.0275 5.34906 24.0275 3.96118C24.042 2.57331 22.8999 1.44565 21.512 1.44565Z" fill="#CE03AE"/>
<path d="M16.2641 18.4038H3.96113C3.55634 18.4038 3.23828 18.0858 3.23828 17.681V7.21406C3.23828 6.80927 3.55634 6.49121 3.96113 6.49121C4.36593 6.49121 4.68399 6.80927 4.68399 7.21406V16.9581H16.2641C16.6689 16.9581 16.987 17.2762 16.987 17.681C16.987 18.0713 16.6689 18.4038 16.2641 18.4038Z" fill="#CE03AE"/>
<path d="M39.0629 18.4038H26.76C26.3552 18.4038 26.0371 18.0858 26.0371 17.681C26.0371 17.2762 26.3552 16.9581 26.76 16.9581H38.3401V7.21406C38.3401 6.80927 38.6581 6.49121 39.0629 6.49121C39.4677 6.49121 39.7858 6.80927 39.7858 7.21406V17.681C39.7858 18.0713 39.4533 18.4038 39.0629 18.4038Z" fill="#CE03AE"/>
<path d="M21.5119 11.768C21.1071 11.768 20.7891 11.45 20.7891 11.0452V7.21406C20.7891 6.80927 21.1071 6.49121 21.5119 6.49121C21.9167 6.49121 22.2348 6.80927 22.2348 7.21406V11.0452C22.2348 11.4355 21.9167 11.768 21.5119 11.768Z" fill="#CE03AE"/>
<path d="M3.96124 45.8C1.77822 45.8 0 44.0218 0 41.8388C0 39.6558 1.77822 37.8776 3.96124 37.8776C6.14425 37.8776 7.92247 39.6558 7.92247 41.8388C7.93693 44.0218 6.15871 45.8 3.96124 45.8ZM3.96124 39.3088C2.57336 39.3088 1.44571 40.4365 1.44571 41.8243C1.44571 43.2122 2.57336 44.3399 3.96124 44.3399C5.34911 44.3399 6.47677 43.2122 6.47677 41.8243C6.49122 40.4509 5.36357 39.3088 3.96124 39.3088Z" fill="#CE03AE"/>
<path d="M39.0628 45.8C36.8798 45.8 35.1016 44.0218 35.1016 41.8388C35.1016 39.6558 36.8798 37.8776 39.0628 37.8776C41.2458 37.8776 43.024 39.6558 43.024 41.8388C43.024 44.0218 41.2458 45.8 39.0628 45.8ZM39.0628 39.3088C37.6749 39.3088 36.5473 40.4365 36.5473 41.8243C36.5473 43.2122 37.6749 44.3399 39.0628 44.3399C40.4507 44.3399 41.5783 43.2122 41.5783 41.8243C41.5783 40.4509 40.4507 39.3088 39.0628 39.3088Z" fill="#CE03AE"/>
<path d="M21.512 45.8C19.329 45.8 17.5508 44.0218 17.5508 41.8388C17.5508 39.6558 19.329 37.8776 21.512 37.8776C23.695 37.8776 25.4733 39.6558 25.4733 41.8388C25.4877 44.0218 23.695 45.8 21.512 45.8ZM21.512 39.3088C20.1241 39.3088 18.9965 40.4365 18.9965 41.8243C18.9965 43.2122 20.1241 44.3399 21.512 44.3399C22.8999 44.3399 24.0275 43.2122 24.0275 41.8243C24.042 40.4509 22.8999 39.3088 21.512 39.3088Z" fill="#CE03AE"/>
<path d="M3.96113 39.3087C3.55634 39.3087 3.23828 38.9907 3.23828 38.5859V28.119C3.23828 27.7142 3.55634 27.3961 3.96113 27.3961H12.4185C12.8233 27.3961 13.1414 27.7142 13.1414 28.119C13.1414 28.5238 12.8233 28.8418 12.4185 28.8418H4.68399V38.5859C4.68399 38.9907 4.36593 39.3087 3.96113 39.3087Z" fill="#CE03AE"/>
<path d="M39.0631 39.3087C38.6583 39.3087 38.3402 38.9907 38.3402 38.5859V28.8418H30.6057C30.2009 28.8418 29.8828 28.5238 29.8828 28.119C29.8828 27.7142 30.2009 27.3961 30.6057 27.3961H39.0631C39.4679 27.3961 39.7859 27.7142 39.7859 28.119V38.5859C39.7859 38.9907 39.4534 39.3087 39.0631 39.3087Z" fill="#CE03AE"/>
<path d="M21.5119 39.3087C21.1071 39.3087 20.7891 38.9907 20.7891 38.5859V34.7403C20.7891 34.3355 21.1071 34.0175 21.5119 34.0175C21.9167 34.0175 22.2348 34.3355 22.2348 34.7403V38.5859C22.2348 38.9907 21.9167 39.3087 21.5119 39.3087Z" fill="#CE03AE"/>
</svg>
