<svg width="57" height="56" viewBox="0 0 57 56" fill="none" xmlns="http://www.w3.org/2000/svg">
<path d="M25.1784 7.49474C23.1225 7.49474 21.431 5.81623 21.431 3.74737C21.431 1.67851 23.1225 0 25.1784 0C27.2472 0 28.9257 1.67851 28.9257 3.74737C28.9257 5.81623 27.2472 7.49474 25.1784 7.49474ZM25.1784 2.08187C24.2545 2.08187 23.5129 2.82354 23.5129 3.74737C23.5129 4.6712 24.2545 5.41287 25.1784 5.41287C26.1022 5.41287 26.8438 4.6712 26.8438 3.74737C26.8438 2.82354 26.1022 2.08187 25.1784 2.08187Z" fill="#CE03AE"/>
<path d="M4.34662 19.5175C3.69604 19.5175 3.05846 19.3484 2.47294 19.0101C1.60115 18.5156 0.989604 17.6959 0.72937 16.733C0.469136 15.7702 0.599253 14.7553 1.10671 13.8835C2.13463 12.0879 4.4377 11.4763 6.22031 12.5173C7.09209 13.0117 7.70364 13.8314 7.96387 14.7943C8.22411 15.7572 8.09399 16.7721 7.58653 17.6439C7.09209 18.5156 6.27235 19.1272 5.30949 19.3874C4.99721 19.4785 4.67192 19.5175 4.34662 19.5175ZM4.35963 14.1047C3.78712 14.1047 3.22762 14.404 2.91534 14.9374C2.69414 15.3278 2.62908 15.7702 2.74618 16.1996C2.86329 16.629 3.13653 16.9933 3.52689 17.2145C3.91724 17.4357 4.35963 17.5007 4.78902 17.3836C5.21841 17.2665 5.58273 16.9933 5.80393 16.6029C6.02513 16.2126 6.09019 15.7702 5.97308 15.3408C5.85598 14.9114 5.58273 14.5471 5.19238 14.3259C4.93215 14.1828 4.64589 14.1047 4.35963 14.1047Z" fill="#CE03AE"/>
<path d="M4.35963 43.5632C3.05846 43.5632 1.79633 42.8866 1.10671 41.6895C0.0787852 39.8939 0.690335 37.6038 2.47294 36.5759C4.26855 35.548 6.55861 36.1595 7.58653 37.9421C8.08098 38.8139 8.22411 39.8158 7.96387 40.7917C7.70364 41.7545 7.07908 42.5613 6.22031 43.0687C5.63478 43.407 4.99721 43.5632 4.35963 43.5632ZM4.34662 38.1503C4.06036 38.1503 3.77411 38.2284 3.51387 38.3715C2.72016 38.8269 2.44691 39.8548 2.90232 40.6485C3.12352 41.0389 3.48785 41.3121 3.91724 41.4292C4.34662 41.5464 4.80203 41.4813 5.17937 41.2601C5.56972 41.0389 5.84297 40.6746 5.96007 40.2452C6.07718 39.8158 6.01212 39.3604 5.79092 38.983C5.56972 38.5927 5.20539 38.3195 4.77601 38.2023C4.64589 38.1763 4.50276 38.1503 4.34662 38.1503Z" fill="#CE03AE"/>
<path d="M25.1784 55.599C23.1095 55.599 21.431 53.9205 21.431 51.8516C21.431 49.7828 23.1095 48.1043 25.1784 48.1043C27.2472 48.1043 28.9257 49.7828 28.9257 51.8516C28.9257 53.9075 27.2472 55.599 25.1784 55.599ZM25.1784 50.1861C24.2545 50.1861 23.5129 50.9278 23.5129 51.8516C23.5129 52.7754 24.2545 53.5171 25.1784 53.5171C26.1022 53.5171 26.8438 52.7754 26.8438 51.8516C26.8438 50.9278 26.1022 50.1861 25.1784 50.1861Z" fill="#CE03AE"/>
<path d="M46.0231 19.5175C45.6978 19.5175 45.3725 19.4785 45.0472 19.3874C44.0844 19.1272 43.2776 18.5026 42.7702 17.6439C42.2757 16.7721 42.1326 15.7702 42.3928 14.7943C42.6531 13.8314 43.2776 13.0247 44.1364 12.5173C45.932 11.4893 48.2221 12.1009 49.25 13.8835C49.7444 14.7553 49.8876 15.7572 49.6273 16.733C49.3671 17.6959 48.7425 18.5026 47.8838 19.0101C47.3112 19.3484 46.6607 19.5175 46.0231 19.5175ZM46.0101 14.1047C45.7238 14.1047 45.4376 14.1828 45.1773 14.3259C44.787 14.5471 44.5137 14.9114 44.3966 15.3408C44.2795 15.7702 44.3446 16.2256 44.5658 16.6029C44.787 16.9933 45.1513 17.2665 45.5807 17.3836C46.0101 17.5007 46.4655 17.4357 46.8428 17.2145C47.2332 16.9933 47.5064 16.629 47.6235 16.1996C47.7406 15.7702 47.6756 15.3148 47.4544 14.9374C47.1421 14.404 46.5826 14.1047 46.0101 14.1047Z" fill="#CE03AE"/>
<path d="M1.48405 36.0684C0.560218 33.414 0.0917969 30.6295 0.0917969 27.793C0.0917969 24.9825 0.560218 22.211 1.47104 19.5826L3.4358 20.2592C2.60305 22.6794 2.17367 25.2037 2.17367 27.793C2.17367 30.3953 2.60305 32.9456 3.46183 35.3788L1.48405 36.0684Z" fill="#CE03AE"/>
<path d="M20.299 52.4111C14.8471 51.3312 9.83756 48.4165 6.18127 44.1877L7.75569 42.8215C11.0997 46.699 15.7058 49.3794 20.7023 50.3683L20.299 52.4111Z" fill="#CE03AE"/>
<path d="M29.9276 52.4371L29.5373 50.3943C32.2437 49.8738 34.82 48.885 37.1751 47.4407L38.2551 49.2102C35.6788 50.7847 32.8813 51.8646 29.9276 52.4371Z" fill="#CE03AE"/>
<path d="M50.2649 27.793H48.183C48.183 25.2167 47.7536 22.6794 46.9209 20.2722L48.8857 19.5956C49.8095 22.224 50.2649 24.9825 50.2649 27.793Z" fill="#CE03AE"/>
<path d="M42.575 12.7254C39.192 8.83494 34.5728 6.16754 29.5373 5.20468L29.9276 3.16184C35.4186 4.21579 40.4671 7.13041 44.1364 11.3722L42.575 12.7254Z" fill="#CE03AE"/>
<path d="M7.79472 12.7254L6.22031 11.3592C9.86358 7.15643 14.8731 4.24181 20.299 3.17485L20.7023 5.21769C15.7319 6.20658 11.1387 8.87398 7.79472 12.7254Z" fill="#CE03AE"/>
<path d="M25.0222 30.9548C20.8715 30.9548 17.4884 27.5718 17.4884 23.4211C17.4884 19.2703 20.8715 15.8873 25.0222 15.8873C29.1729 15.8873 32.556 19.2703 32.556 23.4211C32.556 27.5718 29.1729 30.9548 25.0222 30.9548ZM25.0222 17.9692C22.0165 17.9692 19.5703 20.4154 19.5703 23.4211C19.5703 26.4268 22.0165 28.873 25.0222 28.873C28.0279 28.873 30.4741 26.4268 30.4741 23.4211C30.4741 20.4154 28.0279 17.9692 25.0222 17.9692Z" fill="#CE03AE"/>
<path d="M17.02 38.5537H14.9381C14.9381 35.8993 17.0981 33.7393 19.7525 33.7393H25.0222V35.8212H19.7525C18.2561 35.8212 17.02 37.0443 17.02 38.5537Z" fill="#CE03AE"/>
<path d="M35.1063 38.5537H33.0244C33.0244 37.0443 31.8013 35.8212 30.292 35.8212H25.0222V33.7393H30.292C32.9463 33.7393 35.1063 35.8993 35.1063 38.5537Z" fill="#CE03AE"/>
<path d="M46.0101 49.9389C40.4281 49.9389 35.887 45.3978 35.887 39.8158C35.887 34.2338 40.4281 29.6927 46.0101 29.6927C51.5921 29.6927 56.1332 34.2338 56.1332 39.8158C56.1332 45.3978 51.5921 49.9389 46.0101 49.9389ZM46.0101 31.7876C41.5731 31.7876 37.9689 35.3918 37.9689 39.8288C37.9689 44.2658 41.5731 47.87 46.0101 47.87C50.4471 47.87 54.0513 44.2658 54.0513 39.8288C54.0513 35.3918 50.4471 31.7876 46.0101 31.7876Z" fill="#CE03AE"/>
<path d="M43.6159 45.2417L39.7645 41.3902L41.2478 39.9199L43.6159 42.301L50.7854 35.1316L52.2557 36.6149L43.6159 45.2417Z" fill="#CE03AE"/>
<mask id="mask0_31_178" style="mask-type:alpha" maskUnits="userSpaceOnUse" x="0" y="0" width="57" height="56">
<path d="M25.1784 7.49474C23.1225 7.49474 21.431 5.81623 21.431 3.74737C21.431 1.67851 23.1225 0 25.1784 0C27.2472 0 28.9257 1.67851 28.9257 3.74737C28.9257 5.81623 27.2472 7.49474 25.1784 7.49474ZM25.1784 2.08187C24.2545 2.08187 23.5129 2.82354 23.5129 3.74737C23.5129 4.6712 24.2545 5.41287 25.1784 5.41287C26.1022 5.41287 26.8438 4.6712 26.8438 3.74737C26.8438 2.82354 26.1022 2.08187 25.1784 2.08187Z" fill="url(#paint0_linear_31_178)"/>
<path d="M4.34662 19.5175C3.69604 19.5175 3.05846 19.3484 2.47294 19.0101C1.60115 18.5156 0.989604 17.6959 0.72937 16.733C0.469136 15.7702 0.599253 14.7553 1.10671 13.8835C2.13463 12.0879 4.4377 11.4763 6.22031 12.5173C7.09209 13.0117 7.70364 13.8314 7.96387 14.7943C8.22411 15.7572 8.09399 16.7721 7.58653 17.6439C7.09209 18.5156 6.27235 19.1272 5.30949 19.3874C4.99721 19.4785 4.67192 19.5175 4.34662 19.5175ZM4.35963 14.1047C3.78712 14.1047 3.22762 14.404 2.91534 14.9374C2.69414 15.3278 2.62908 15.7702 2.74618 16.1996C2.86329 16.629 3.13653 16.9933 3.52689 17.2145C3.91724 17.4357 4.35963 17.5007 4.78902 17.3836C5.21841 17.2665 5.58273 16.9933 5.80393 16.6029C6.02513 16.2126 6.09019 15.7702 5.97308 15.3408C5.85598 14.9114 5.58273 14.5471 5.19238 14.3259C4.93215 14.1828 4.64589 14.1047 4.35963 14.1047Z" fill="url(#paint1_linear_31_178)"/>
<path d="M4.35963 43.5632C3.05846 43.5632 1.79633 42.8866 1.10671 41.6895C0.0787852 39.8939 0.690335 37.6038 2.47294 36.5759C4.26855 35.548 6.55861 36.1595 7.58653 37.9421C8.08098 38.8139 8.22411 39.8158 7.96387 40.7917C7.70364 41.7545 7.07908 42.5613 6.22031 43.0687C5.63478 43.407 4.99721 43.5632 4.35963 43.5632ZM4.34662 38.1503C4.06036 38.1503 3.77411 38.2284 3.51387 38.3715C2.72016 38.8269 2.44691 39.8548 2.90232 40.6485C3.12352 41.0389 3.48785 41.3121 3.91724 41.4292C4.34662 41.5464 4.80203 41.4813 5.17937 41.2601C5.56972 41.0389 5.84297 40.6746 5.96007 40.2452C6.07718 39.8158 6.01212 39.3604 5.79092 38.983C5.56972 38.5927 5.20539 38.3195 4.77601 38.2023C4.64589 38.1763 4.50276 38.1503 4.34662 38.1503Z" fill="url(#paint2_linear_31_178)"/>
<path d="M25.1784 55.599C23.1095 55.599 21.431 53.9205 21.431 51.8516C21.431 49.7828 23.1095 48.1043 25.1784 48.1043C27.2472 48.1043 28.9257 49.7828 28.9257 51.8516C28.9257 53.9075 27.2472 55.599 25.1784 55.599ZM25.1784 50.1861C24.2545 50.1861 23.5129 50.9278 23.5129 51.8516C23.5129 52.7754 24.2545 53.5171 25.1784 53.5171C26.1022 53.5171 26.8438 52.7754 26.8438 51.8516C26.8438 50.9278 26.1022 50.1861 25.1784 50.1861Z" fill="url(#paint3_linear_31_178)"/>
<path d="M46.0231 19.5175C45.6978 19.5175 45.3725 19.4785 45.0472 19.3874C44.0844 19.1272 43.2776 18.5026 42.7702 17.6439C42.2757 16.7721 42.1326 15.7702 42.3928 14.7943C42.6531 13.8314 43.2776 13.0247 44.1364 12.5173C45.932 11.4893 48.2221 12.1009 49.25 13.8835C49.7444 14.7553 49.8876 15.7572 49.6273 16.733C49.3671 17.6959 48.7425 18.5026 47.8838 19.0101C47.3112 19.3484 46.6607 19.5175 46.0231 19.5175ZM46.0101 14.1047C45.7238 14.1047 45.4376 14.1828 45.1773 14.3259C44.787 14.5471 44.5137 14.9114 44.3966 15.3408C44.2795 15.7702 44.3446 16.2256 44.5658 16.6029C44.787 16.9933 45.1513 17.2665 45.5807 17.3836C46.0101 17.5007 46.4655 17.4357 46.8428 17.2145C47.2332 16.9933 47.5064 16.629 47.6235 16.1996C47.7406 15.7702 47.6756 15.3148 47.4544 14.9374C47.1421 14.404 46.5826 14.1047 46.0101 14.1047Z" fill="url(#paint4_linear_31_178)"/>
<path d="M1.48405 36.0684C0.560218 33.414 0.0917969 30.6295 0.0917969 27.793C0.0917969 24.9825 0.560218 22.211 1.47104 19.5826L3.4358 20.2592C2.60305 22.6794 2.17367 25.2037 2.17367 27.793C2.17367 30.3953 2.60305 32.9456 3.46183 35.3788L1.48405 36.0684Z" fill="url(#paint5_linear_31_178)"/>
<path d="M20.299 52.4111C14.8471 51.3312 9.83756 48.4165 6.18127 44.1877L7.75569 42.8215C11.0997 46.699 15.7058 49.3794 20.7023 50.3683L20.299 52.4111Z" fill="url(#paint6_linear_31_178)"/>
<path d="M29.9276 52.4371L29.5373 50.3943C32.2437 49.8738 34.82 48.885 37.1751 47.4407L38.2551 49.2102C35.6788 50.7847 32.8813 51.8646 29.9276 52.4371Z" fill="url(#paint7_linear_31_178)"/>
<path d="M50.2649 27.793H48.183C48.183 25.2167 47.7536 22.6794 46.9209 20.2722L48.8857 19.5956C49.8095 22.224 50.2649 24.9825 50.2649 27.793Z" fill="url(#paint8_linear_31_178)"/>
<path d="M42.575 12.7254C39.192 8.83494 34.5728 6.16754 29.5373 5.20468L29.9276 3.16184C35.4186 4.21579 40.4671 7.13041 44.1364 11.3722L42.575 12.7254Z" fill="url(#paint9_linear_31_178)"/>
<path d="M7.79472 12.7254L6.22031 11.3592C9.86358 7.15643 14.8731 4.24181 20.299 3.17485L20.7023 5.21769C15.7319 6.20658 11.1387 8.87398 7.79472 12.7254Z" fill="url(#paint10_linear_31_178)"/>
<path d="M25.0222 30.9548C20.8715 30.9548 17.4884 27.5718 17.4884 23.4211C17.4884 19.2703 20.8715 15.8873 25.0222 15.8873C29.1729 15.8873 32.556 19.2703 32.556 23.4211C32.556 27.5718 29.1729 30.9548 25.0222 30.9548ZM25.0222 17.9692C22.0165 17.9692 19.5703 20.4154 19.5703 23.4211C19.5703 26.4268 22.0165 28.873 25.0222 28.873C28.0279 28.873 30.4741 26.4268 30.4741 23.4211C30.4741 20.4154 28.0279 17.9692 25.0222 17.9692Z" fill="url(#paint11_linear_31_178)"/>
<path d="M17.02 38.5537H14.9381C14.9381 35.8993 17.0981 33.7393 19.7525 33.7393H25.0222V35.8212H19.7525C18.2561 35.8212 17.02 37.0443 17.02 38.5537Z" fill="url(#paint12_linear_31_178)"/>
<path d="M35.1063 38.5537H33.0244C33.0244 37.0443 31.8013 35.8212 30.292 35.8212H25.0222V33.7393H30.292C32.9463 33.7393 35.1063 35.8993 35.1063 38.5537Z" fill="url(#paint13_linear_31_178)"/>
<path d="M46.0101 49.9389C40.4281 49.9389 35.887 45.3978 35.887 39.8158C35.887 34.2338 40.4281 29.6927 46.0101 29.6927C51.5921 29.6927 56.1332 34.2338 56.1332 39.8158C56.1332 45.3978 51.5921 49.9389 46.0101 49.9389ZM46.0101 31.7876C41.5731 31.7876 37.9689 35.3918 37.9689 39.8288C37.9689 44.2658 41.5731 47.87 46.0101 47.87C50.4471 47.87 54.0513 44.2658 54.0513 39.8288C54.0513 35.3918 50.4471 31.7876 46.0101 31.7876Z" fill="url(#paint14_linear_31_178)"/>
<path d="M43.6159 45.2417L39.7645 41.3902L41.2478 39.9199L43.6159 42.301L50.7854 35.1316L52.2557 36.6149L43.6159 45.2417Z" fill="url(#paint15_linear_31_178)"/>
</mask>
<g mask="url(#mask0_31_178)">
<path d="M37.1913 30.0916C37.1913 38.515 31.6547 45.3435 24.8249 45.3435C17.9951 45.3435 12.4585 38.515 12.4585 30.0916C12.4585 21.6682 17.9951 14.8397 24.8249 14.8397C31.6547 14.8397 37.1913 21.6682 37.1913 30.0916Z" fill="white"/>
<path d="M59.4509 39.5725C59.4509 45.947 53.9142 51.1145 47.0844 51.1145C40.2547 51.1145 34.718 45.947 34.718 39.5725C34.718 33.1981 40.2547 28.0305 47.0844 28.0305C53.9142 28.0305 59.4509 33.1981 59.4509 39.5725Z" fill="white"/>
</g>
<defs>
<linearGradient id="paint0_linear_31_178" x1="12.8914" y1="-6.26852" x2="59.1353" y2="11.2589" gradientUnits="userSpaceOnUse">
<stop stop-color="#E00C69"/>
<stop offset="1" stop-color="#CE03AE"/>
</linearGradient>
<linearGradient id="paint1_linear_31_178" x1="12.8914" y1="-6.26852" x2="59.1353" y2="11.2589" gradientUnits="userSpaceOnUse">
<stop stop-color="#E00C69"/>
<stop offset="1" stop-color="#CE03AE"/>
</linearGradient>
<linearGradient id="paint2_linear_31_178" x1="12.8914" y1="-6.26852" x2="59.1353" y2="11.2589" gradientUnits="userSpaceOnUse">
<stop stop-color="#E00C69"/>
<stop offset="1" stop-color="#CE03AE"/>
</linearGradient>
<linearGradient id="paint3_linear_31_178" x1="12.8914" y1="-6.26852" x2="59.1353" y2="11.2589" gradientUnits="userSpaceOnUse">
<stop stop-color="#E00C69"/>
<stop offset="1" stop-color="#CE03AE"/>
</linearGradient>
<linearGradient id="paint4_linear_31_178" x1="12.8914" y1="-6.26852" x2="59.1353" y2="11.2589" gradientUnits="userSpaceOnUse">
<stop stop-color="#E00C69"/>
<stop offset="1" stop-color="#CE03AE"/>
</linearGradient>
<linearGradient id="paint5_linear_31_178" x1="12.8914" y1="-6.26852" x2="59.1353" y2="11.2589" gradientUnits="userSpaceOnUse">
<stop stop-color="#E00C69"/>
<stop offset="1" stop-color="#CE03AE"/>
</linearGradient>
<linearGradient id="paint6_linear_31_178" x1="12.8914" y1="-6.26852" x2="59.1353" y2="11.2589" gradientUnits="userSpaceOnUse">
<stop stop-color="#E00C69"/>
<stop offset="1" stop-color="#CE03AE"/>
</linearGradient>
<linearGradient id="paint7_linear_31_178" x1="12.8914" y1="-6.26852" x2="59.1353" y2="11.2589" gradientUnits="userSpaceOnUse">
<stop stop-color="#E00C69"/>
<stop offset="1" stop-color="#CE03AE"/>
</linearGradient>
<linearGradient id="paint8_linear_31_178" x1="12.8914" y1="-6.26852" x2="59.1353" y2="11.2589" gradientUnits="userSpaceOnUse">
<stop stop-color="#E00C69"/>
<stop offset="1" stop-color="#CE03AE"/>
</linearGradient>
<linearGradient id="paint9_linear_31_178" x1="12.8914" y1="-6.26852" x2="59.1353" y2="11.2589" gradientUnits="userSpaceOnUse">
<stop stop-color="#E00C69"/>
<stop offset="1" stop-color="#CE03AE"/>
</linearGradient>
<linearGradient id="paint10_linear_31_178" x1="12.8914" y1="-6.26852" x2="59.1353" y2="11.2589" gradientUnits="userSpaceOnUse">
<stop stop-color="#E00C69"/>
<stop offset="1" stop-color="#CE03AE"/>
</linearGradient>
<linearGradient id="paint11_linear_31_178" x1="12.8914" y1="-6.26852" x2="59.1353" y2="11.2589" gradientUnits="userSpaceOnUse">
<stop stop-color="#E00C69"/>
<stop offset="1" stop-color="#CE03AE"/>
</linearGradient>
<linearGradient id="paint12_linear_31_178" x1="12.8914" y1="-6.26852" x2="59.1353" y2="11.2589" gradientUnits="userSpaceOnUse">
<stop stop-color="#E00C69"/>
<stop offset="1" stop-color="#CE03AE"/>
</linearGradient>
<linearGradient id="paint13_linear_31_178" x1="12.8914" y1="-6.26852" x2="59.1353" y2="11.2589" gradientUnits="userSpaceOnUse">
<stop stop-color="#E00C69"/>
<stop offset="1" stop-color="#CE03AE"/>
</linearGradient>
<linearGradient id="paint14_linear_31_178" x1="12.8914" y1="-6.26852" x2="59.1353" y2="11.2589" gradientUnits="userSpaceOnUse">
<stop stop-color="#E00C69"/>
<stop offset="1" stop-color="#CE03AE"/>
</linearGradient>
<linearGradient id="paint15_linear_31_178" x1="12.8914" y1="-6.26852" x2="59.1353" y2="11.2589" gradientUnits="userSpaceOnUse">
<stop stop-color="#E00C69"/>
<stop offset="1" stop-color="#CE03AE"/>
</linearGradient>
</defs>
</svg>
